<svg xmlns="http://www.w3.org/2000/svg" xmlns:xlink="http://www.w3.org/1999/xlink" preserveAspectRatio="xMidYMid meet" version="1.1" viewBox="123.6 113.4 178.1 198.4" zoomAndPan="magnify" style="fill: rgb(0, 0, 0);" role="img" aria-label="Trumpet Party Detailed Style Icon">
 <g id="__id1696_slxfgu64xl">
  <g id="__id1697_slxfgu64xl"><path d="m235.65 245.2l-13.65 8.11-25.58 15.21-13.95 8.28-20.61 12.26-9.31 5.52-0.01 0.01-12.6 7.5-16.38 9.72 5.31-12.45 2.41-5.65 5.54-13.02 2.67-6.3 6.65-15.59 2.82-6.64 8.31-19.49 3.35-7.89 6.52-15.28 2.87-6.76 4.64-10.88 61 53.34" style="fill: rgb(248, 245, 245);"></path></g>
  <g id="__id1698_slxfgu64xl"><path d="m281.75 227.65l-55.33-0.54 54.4-10.14z" style="fill: rgb(248, 245, 245);"></path></g>
  <g id="__id1699_slxfgu64xl"><path d="m290.33 188.69l-73.91 29.68 69.25-39.34z" style="fill: rgb(248, 245, 245);"></path></g>
  <g id="__id1700_slxfgu64xl"><path d="m196.62 143.33l-2.81 55.26-7.9-54.77z" style="fill: rgb(248, 245, 245);"></path></g>
  <g id="__id1701_slxfgu64xl"><path d="m233.58 133.46l-29.78 73.88 19.58-77.21z" style="fill: rgb(248, 245, 245);"></path></g>
  <g id="__id1702_slxfgu64xl"><path d="m275.4 150.99l-66.02 61.22 58.27-68.63z" style="fill: rgb(248, 245, 245);"></path></g>
  <g id="__id1703_slxfgu64xl"><path d="m152.54 294.59l-12.6 7.5-11.07-2.73 2.41-5.65 21.26 0.88" style="fill: rgb(112, 127, 150);"></path></g>
  <g id="__id1704_slxfgu64xl"><path d="m182.47 276.8l-20.61 12.26-25.04-8.37 2.67-6.3 42.98 2.41" style="fill: rgb(112, 127, 150);"></path></g>
  <g id="__id1705_slxfgu64xl"><path d="m222 253.31l-25.58 15.21-50.28-9.72 2.82-6.64 73.04 1.15" style="fill: rgb(112, 127, 150);"></path></g>
  <g id="__id1706_slxfgu64xl"><path d="m233.47 243.3l-76.2-10.63 3.35-7.89 46.42-4.6 26.43 23.12" style="fill: rgb(112, 127, 150);"></path></g>
  <g id="__id1707_slxfgu64xl"><path d="m200.09 214.11l-32.95-4.61 2.87-6.76 15.35-1.53 14.73 12.9" style="fill: rgb(112, 127, 150);"></path></g>
  <g id="__id1708_slxfgu64xl"><path d="m279.28 170.17l-0.46-4.22-3.73-2.01 3.87-1.74 0.76-4.17 2.85 3.15 4.2-0.57-2.11 3.68 1.84 3.82-4.15-0.87-3.07 2.93" style="fill: rgb(248, 245, 245);"></path></g>
  <g id="__id1709_slxfgu64xl"><path d="m268.37 208.12l0.51-1.91-1.29-1.51 1.97-0.1 1.04-1.69 0.71 1.85 1.92 0.45-1.53 1.25 0.16 1.98-1.67-1.08-1.82 0.76" style="fill: rgb(126, 38, 137);"></path></g>
  <g id="__id1710_slxfgu64xl"><path d="m233.89 162.14l-1.56-6.15-5.95-2.2 5.36-3.39 0.25-6.34 4.88 4.06 6.11-1.73-2.35 5.9 3.52 5.27-6.33-0.41-3.93 4.99" style="fill: rgb(126, 38, 137);"></path></g>
  <g id="__id1711_slxfgu64xl"><path d="m268.73 135.62l-0.55-2.19-2.12-0.79 1.91-1.21 0.1-2.26 1.73 1.45 2.18-0.61-0.84 2.1 1.26 1.88-2.26-0.15-1.41 1.78" style="fill: rgb(149, 33, 179);"></path></g>
  <g id="__id1712_slxfgu64xl"><path d="m203.3 164.67l-1.53-3.69-3.91-0.82 3.02-2.6-0.42-3.97 3.41 2.07 3.65-1.63-0.93 3.89 2.68 2.96-3.98 0.33-1.99 3.46" style="fill: rgb(149, 33, 179);"></path></g>
  <g id="__id1713_slxfgu64xl"><path d="m292.91 209.01l0.92-3.42-2.31-2.7 3.54-0.19 1.85-3.02 1.28 3.3 3.45 0.83-2.75 2.23 0.28 3.54-2.98-1.93-3.28 1.36" style="fill: rgb(248, 245, 245);"></path></g>
  <g id="__id1714_slxfgu64xl"><path d="m232.94 124.89l-3.14-2.55-3.88 1.14 1.45-3.77-2.28-3.33 4.03 0.21 2.47-3.2 1.04 3.91 3.81 1.35-3.39 2.2-0.11 4.04" style="fill: rgb(248, 245, 245);"></path></g>
  <g id="__id1715_slxfgu64xl"><path d="m206.23 137.94l0.61-2.3-1.55-1.8 2.37-0.13 1.24-2.02 0.86 2.21 2.31 0.55-1.85 1.5 0.19 2.37-1.99-1.29-2.19 0.91" style="fill: rgb(149, 33, 179);"></path></g>
  <g id="__id1716_slxfgu64xl"><path d="m255.47 185.76l0.61-2.29-1.54-1.81 2.37-0.12 1.24-2.03 0.85 2.22 2.31 0.54-1.84 1.5 0.19 2.37-2-1.29-2.19 0.91" style="fill: rgb(149, 33, 179);"></path></g>
 </g>
</svg>