<?xml version="1.0" encoding="utf-8"?>
<svg viewBox="0 0 500 500" xmlns="http://www.w3.org/2000/svg" xmlns:bx="https://boxy-svg.com">
  <ellipse style="fill: rgba(216, 216, 216, 0); stroke-width: 43px; stroke: rgb(252, 148, 4);" cx="243.232" cy="243.781" rx="198.424" ry="198.424"/>
  <path style="stroke: rgb(0, 0, 0); stroke-width: 0px; fill: rgb(252, 148, 4);" d="M 217.558 139.012 H 232.768 A 8.988 8.988 0 0 1 241.756 148 V 262.075 A 8.988 8.988 0 0 1 232.768 271.063 H 208.57 V 148 A 8.988 8.988 0 0 1 217.558 139.012 Z" bx:shape="rect 208.57 139.012 33.186 132.051 8.988 8.988 8.988 0 1@b99a44cc"/>
  <path style="stroke: rgb(0, 0, 0); stroke-width: 0px; fill: rgb(252, 148, 4);" transform="matrix(0.528554, -0.8489, 0.8489, 0.528554, -121.20557, 370.796123)" d="M 258.993 227.471 H 278.702 A 13.477 13.477 0 0 1 292.179 240.948 V 349.046 A 13.477 13.477 0 0 1 278.702 362.523 H 272.47 A 13.477 13.477 0 0 1 258.993 349.046 V 227.471 Z" bx:origin="0.01 0.003" bx:shape="rect 258.993 227.471 33.186 135.052 0 13.477 13.477 13.477 1@04cfc544"/>
</svg>