<svg xmlns="http://www.w3.org/2000/svg" xmlns:xlink="http://www.w3.org/1999/xlink" version="1.1" x="0px" y="0px" viewBox="0 0 350 355.197" enable-background="new 0 0 350 355.197" xml:space="preserve" style="fill: rgb(0, 0, 0);" role="img" aria-label="Gear Settings Icon">
<g id="__id1772_sv7ncaiw1s">
	<path d="M177.591,100.044c42.774,0,77.552,34.788,77.552,77.562c0,42.76-34.777,77.565-77.552,77.565   c-42.767,0-77.568-34.806-77.568-77.565C100.022,134.832,134.824,100.044,177.591,100.044 M177.591,46.094   c-72.638,0-131.512,58.892-131.512,131.512c0,72.642,58.874,131.509,131.512,131.509c72.613,0,131.509-58.867,131.509-131.509   C309.1,104.985,250.219,46.094,177.591,46.094L177.591,46.094z" style="fill: rgb(227, 230, 235);"></path>
	<path d="M202.88,64.25c0,9.716-7.839,17.544-17.522,17.544h-19.731c-9.69,0-17.54-7.828-17.54-17.544V17.554   c0-9.69,7.842-17.554,17.54-17.554h19.731c9.677,0,17.522,7.863,17.522,17.554V64.25z" style="fill: rgb(227, 230, 235);"></path>
	<path d="M202.88,337.668c0,9.684-7.839,17.529-17.522,17.529h-19.731c-9.69,0-17.54-7.824-17.54-17.529v-46.7   c0-9.704,7.842-17.528,17.54-17.528h19.731c9.677,0,17.522,7.81,17.522,17.528V337.668z" style="fill: rgb(227, 230, 235);"></path>
	<path d="M114.708,77.106c6.852,6.848,6.837,17.941,0,24.782l-13.957,13.943c-6.838,6.858-17.935,6.858-24.801,0   L42.925,82.81c-6.848-6.866-6.848-17.941,0-24.771l13.943-13.979c6.858-6.844,17.944-6.844,24.807,0L114.708,77.106z" style="fill: rgb(227, 230, 235);"></path>
	<path d="M308.037,270.432c6.877,6.869,6.848,17.938,0,24.765l-13.954,13.976c-6.848,6.854-17.931,6.854-24.778,0   l-33.033-33.02c-6.848-6.876-6.848-17.967,0-24.807l13.954-13.947c6.848-6.848,17.916-6.848,24.778,0L308.037,270.432z" style="fill: rgb(227, 230, 235);"></path>
	<path d="M78.061,237.384c6.859-6.848,17.963-6.848,24.808,0l13.943,13.947c6.852,6.854,6.858,17.924,0,24.821   l-33.033,32.99c-6.858,6.869-17.941,6.869-24.786,0l-13.957-13.946c-6.837-6.841-6.859-17.924,0-24.779L78.061,237.384z" style="fill: rgb(227, 230, 235);"></path>
	<path d="M271.394,44.059c6.855-6.858,17.938-6.844,24.778,0l13.976,13.943c6.841,6.866,6.841,17.941,0,24.808   l-33.04,33.022c-6.855,6.858-17.945,6.858-24.793,0l-13.947-13.943c-6.854-6.841-6.869-17.935,0-24.808L271.394,44.059z" style="fill: rgb(227, 230, 235);"></path>
	<path d="M285.742,205.004c-9.69,0-17.528-7.867-17.528-17.55v-19.722c0-9.68,7.824-17.536,17.528-17.536h46.7   c9.697,0,17.558,7.85,17.558,17.536v19.743c0,9.661-7.853,17.543-17.558,17.543L285.742,205.004L285.742,205.004z" style="fill: rgb(227, 230, 235);"></path>
	<path d="M17.521,205.004C7.835,205.004,0,197.137,0,187.454v-19.722c0-9.68,7.835-17.536,17.521-17.536h46.722   c9.694,0,17.521,7.85,17.521,17.536v19.743c0,9.661-7.827,17.543-17.521,17.543L17.521,205.004L17.521,205.004z" style="fill: rgb(227, 230, 235);"></path>
</g>
</svg>