<?xml version="1.0" encoding="utf-8"?>
<svg viewBox="0 0 212.5 240" style="fill: rgb(149, 33, 179)" xmlns="http://www.w3.org/2000/svg">
  <g id="__id560_s386qxatgn">
    <path d="M 10.048 -0.264 L 158.83 -0.264 C 164.329 -0.264 168.786 4.193 168.786 9.692 L 168.786 229.78 C 168.786 235.279 164.329 239.736 158.83 239.736 L 10.048 239.736 C 4.549 239.736 0.092 235.279 0.092 229.78 L 0.092 9.692 C 0.092 4.193 4.549 -0.264 10.048 -0.264 Z M 63.605 40.911 L 63.222 40.501 C 61.339 38.481 58.175 38.371 56.156 40.254 L 35.584 59.438 L 27.692 50.975 C 25.809 48.955 22.645 48.845 20.626 50.728 L 20.187 51.137 C 18.167 53.021 18.057 56.184 19.94 58.204 L 31.355 70.445 C 32.109 71.254 33.069 71.756 34.078 71.947 C 35.713 72.42 37.548 72.047 38.883 70.802 L 63.358 47.978 C 65.378 46.095 65.488 42.931 63.605 40.911 Z M 64.224 85.605 L 63.841 85.195 C 61.958 83.176 58.794 83.065 56.774 84.948 L 36.203 104.132 L 28.311 95.669 C 26.428 93.65 23.264 93.539 21.244 95.422 L 20.805 95.832 C 18.786 97.715 18.675 100.879 20.559 102.898 L 31.973 115.139 C 32.728 115.949 33.688 116.451 34.698 116.642 C 36.332 117.114 38.167 116.74 39.501 115.496 L 63.977 92.672 C 65.996 90.789 66.107 87.625 64.224 85.605 Z M 64.628 137.131 L 64.245 136.721 C 62.362 134.702 59.198 134.591 57.179 136.474 L 36.607 155.658 L 28.715 147.195 C 26.832 145.176 23.668 145.065 21.649 146.948 L 21.21 147.358 C 19.19 149.241 19.08 152.405 20.963 154.424 L 32.378 166.665 C 33.132 167.474 34.092 167.977 35.101 168.168 C 36.736 168.641 38.571 168.267 39.906 167.022 L 64.381 144.198 C 66.401 142.315 66.511 139.151 64.628 137.131 Z M 73.714 97.435 L 73.714 100.175 C 73.714 102.936 75.953 105.175 78.714 105.175 L 152.798 105.175 C 155.559 105.175 157.798 102.936 157.798 100.175 L 157.798 97.435 C 157.798 94.674 155.559 92.435 152.798 92.435 L 78.714 92.435 C 75.953 92.435 73.714 94.674 73.714 97.435 Z M 73.532 47.749 L 73.532 50.489 C 73.532 53.25 75.771 55.489 78.532 55.489 L 152.616 55.489 C 155.377 55.489 157.616 53.25 157.616 50.489 L 157.616 47.749 C 157.616 44.988 155.377 42.749 152.616 42.749 L 78.532 42.749 C 75.771 42.749 73.532 44.988 73.532 47.749 Z M 72.258 149.122 L 72.258 151.862 C 72.258 154.623 74.497 156.862 77.258 156.862 L 151.342 156.862 C 154.103 156.862 156.342 154.623 156.342 151.862 L 156.342 149.122 C 156.342 146.361 154.103 144.122 151.342 144.122 L 77.258 144.122 C 74.497 144.122 72.258 146.361 72.258 149.122 Z" style="stroke: rgb(0, 0, 0); stroke-width: 0px;"/>
    <rect style="stroke-width: 0px; stroke: rgb(149, 33, 179);" x="175.816" y="25.641" width="14.196" height="214.395" rx="3.096" ry="3.096"/>
    <rect style="stroke-width: 0px; stroke: rgb(149, 33, 179);" x="198.202" y="52.031" width="14.196" height="187.823" rx="3.096" ry="3.096"/>
  </g>
  <g>
    <g/>
    <g transform="matrix(1, 0, 0, 1, 0.618622, 44.694336)"/>
    <g transform="matrix(1, 0, 0, 1, 1.023055, 96.220306)"/>
  </g>
</svg>