<svg
    xmlns="http://www.w3.org/2000/svg"
    xmlns:xlink="http://www.w3.org/1999/xlink"
    version="1.0"
    viewBox="0.0 0.0 212.5 240.0"
    style="fill: rgb(149, 33, 179)">
    <g id="__id560_s386qxatgn">
        <path d="M198.5 40.22H212.5V240H198.5z"></path>
        <path d="M176 21H190.5V240H176z"></path>
        <path
            d="M0,0V240H168V0ZM34,189.75,19.18,174.92l5.65-5.66L34,178.43l22.23-22.22,5.66,5.65Zm0-61.88L19.18,113l5.65-5.66L34,116.56,56.23,94.33,61.89,100ZM34,66,19.18,51.16l5.65-5.65L34,54.68,56.23,32.45l5.66,5.66ZM146,175.56H81.67v-8H146Zm0-61.88H81.67v-8H146Zm0-61.87H81.67v-8H146Z"
        ></path>
    </g>
</svg>
